<svg width="680" height="920" viewBox="0 0 680 920" xmlns="http://www.w3.org/2000/svg" role="img" style="background:#ffffff;font-family:Arial,sans-serif;">
<title>Mira Architecture Diagram</title>
<desc>Flowchart showing the Mira AI workflow from chat trigger through data loading, JavaScript processing, intent classification, routing, six specialist agents, and Langfuse observability.</desc>

<defs>
<marker id="arrow" viewBox="0 0 10 10" refX="8" refY="5" markerWidth="6" markerHeight="6" orient="auto-start-reverse">
<path d="M2 1L8 5L2 9" fill="none" stroke="#888780" stroke-width="1.5" stroke-linecap="round" stroke-linejoin="round"/>
</marker>
</defs>

<!-- Chat Trigger -->
<rect x="240" y="20" width="200" height="44" rx="8" fill="#EEEDFE" stroke="#534AB7" stroke-width="0.5"/>
<text x="340" y="46" text-anchor="middle" font-size="14" font-weight="500" fill="#3C3489">Chat trigger</text>

<!-- Arrow down to data layer -->
<line x1="340" y1="64" x2="340" y2="94" stroke="#888780" stroke-width="1" marker-end="url(#arrow)"/>

<!-- Google Drive label -->
<text x="30" y="96" font-size="11" fill="#888780">Google Drive reads</text>

<!-- 4 Load nodes -->
<rect x="20" y="100" width="130" height="44" rx="8" fill="#E1F5EE" stroke="#0F6E56" stroke-width="0.5"/>
<text x="85" y="118" text-anchor="middle" font-size="13" font-weight="500" fill="#085041">Load timeline</text>
<text x="85" y="134" text-anchor="middle" font-size="11" fill="#0F6E56">Google Drive</text>

<rect x="165" y="100" width="130" height="44" rx="8" fill="#E1F5EE" stroke="#0F6E56" stroke-width="0.5"/>
<text x="230" y="118" text-anchor="middle" font-size="13" font-weight="500" fill="#085041">Load description</text>
<text x="230" y="134" text-anchor="middle" font-size="11" fill="#0F6E56">Google Drive</text>

<rect x="310" y="100" width="130" height="44" rx="8" fill="#E1F5EE" stroke="#0F6E56" stroke-width="0.5"/>
<text x="375" y="118" text-anchor="middle" font-size="13" font-weight="500" fill="#085041">Load task board</text>
<text x="375" y="134" text-anchor="middle" font-size="11" fill="#0F6E56">Google Drive</text>

<rect x="455" y="100" width="130" height="44" rx="8" fill="#E1F5EE" stroke="#0F6E56" stroke-width="0.5"/>
<text x="520" y="118" text-anchor="middle" font-size="13" font-weight="500" fill="#085041">Load risks</text>
<text x="520" y="134" text-anchor="middle" font-size="11" fill="#0F6E56">Google Drive</text>

<!-- Lines from trigger to load nodes -->
<path d="M340 64 L340 80 L85 80 L85 100" fill="none" stroke="#888780" stroke-width="1" marker-end="url(#arrow)" opacity="0.6"/>
<path d="M340 64 L340 80 L230 80 L230 100" fill="none" stroke="#888780" stroke-width="1" marker-end="url(#arrow)" opacity="0.6"/>
<path d="M340 64 L340 80 L375 80 L375 100" fill="none" stroke="#888780" stroke-width="1" marker-end="url(#arrow)" opacity="0.6"/>
<path d="M340 64 L340 80 L520 80 L520 100" fill="none" stroke="#888780" stroke-width="1" marker-end="url(#arrow)" opacity="0.6"/>

<!-- Lines from load nodes to JS node -->
<path d="M85 144 L85 210 L240 210" fill="none" stroke="#888780" stroke-width="1" marker-end="url(#arrow)" opacity="0.6"/>
<path d="M230 144 L230 210" fill="none" stroke="#888780" stroke-width="1" marker-end="url(#arrow)" opacity="0.6"/>
<path d="M375 144 L375 210" fill="none" stroke="#888780" stroke-width="1" marker-end="url(#arrow)" opacity="0.6"/>
<path d="M520 144 L520 210 L440 210" fill="none" stroke="#888780" stroke-width="1" marker-end="url(#arrow)" opacity="0.6"/>

<!-- JavaScript node -->
<rect x="140" y="196" width="360" height="56" rx="8" fill="#FAEEDA" stroke="#854F0B" stroke-width="0.5"/>
<text x="320" y="218" text-anchor="middle" font-size="14" font-weight="500" fill="#633806">Code in JavaScript</text>
<text x="320" y="238" text-anchor="middle" font-size="11" fill="#854F0B">Combine data + deterministic task count</text>

<!-- Arrow down -->
<line x1="320" y1="252" x2="320" y2="282" stroke="#888780" stroke-width="1" marker-end="url(#arrow)"/>

<!-- Intent Classifier -->
<rect x="130" y="282" width="380" height="56" rx="8" fill="#EEEDFE" stroke="#534AB7" stroke-width="0.5"/>
<text x="320" y="304" text-anchor="middle" font-size="14" font-weight="500" fill="#3C3489">Mira intent classifier</text>
<text x="320" y="322" text-anchor="middle" font-size="11" fill="#534AB7">Orchestrator — routes by intent (gpt-4o-mini)</text>

<!-- Arrow down -->
<line x1="320" y1="338" x2="320" y2="368" stroke="#888780" stroke-width="1" marker-end="url(#arrow)"/>

<!-- Route by Intent -->
<rect x="200" y="368" width="240" height="44" rx="8" fill="#F1EFE8" stroke="#5F5E5A" stroke-width="0.5"/>
<text x="320" y="386" text-anchor="middle" font-size="14" font-weight="500" fill="#2C2C2A">Route by intent</text>
<text x="320" y="402" text-anchor="middle" font-size="11" fill="#5F5E5A">Switch node — 6 routes</text>

<!-- Arrows from Switch to agents row 1 -->
<path d="M320 412 L320 440 L110 440 L110 460" fill="none" stroke="#888780" stroke-width="1" marker-end="url(#arrow)" opacity="0.7"/>
<path d="M320 412 L320 460" fill="none" stroke="#888780" stroke-width="1" marker-end="url(#arrow)" opacity="0.7"/>
<path d="M320 412 L320 440 L540 440 L540 460" fill="none" stroke="#888780" stroke-width="1" marker-end="url(#arrow)" opacity="0.7"/>

<!-- Arrows from Switch to agents row 2 -->
<path d="M200 412 L200 550 L110 550 L110 560" fill="none" stroke="#888780" stroke-width="1" marker-end="url(#arrow)" opacity="0.7"/>
<path d="M320 412 L320 530 L320 560" fill="none" stroke="#888780" stroke-width="1" marker-end="url(#arrow)" opacity="0.7"/>
<path d="M440 412 L440 550 L540 550 L540 560" fill="none" stroke="#888780" stroke-width="1" marker-end="url(#arrow)" opacity="0.7"/>

<!-- Agent Row 1 -->
<rect x="20" y="460" width="180" height="56" rx="8" fill="#FAECE7" stroke="#993C1D" stroke-width="0.5"/>
<text x="110" y="480" text-anchor="middle" font-size="13" font-weight="500" fill="#712B13">Planner agent</text>
<text x="110" y="498" text-anchor="middle" font-size="11" fill="#993C1D">Project plan generation</text>

<rect x="230" y="460" width="180" height="56" rx="8" fill="#FAECE7" stroke="#993C1D" stroke-width="0.5"/>
<text x="320" y="480" text-anchor="middle" font-size="13" font-weight="500" fill="#712B13">Risk assessor</text>
<text x="320" y="498" text-anchor="middle" font-size="11" fill="#993C1D">Risk matrix generation</text>

<rect x="440" y="460" width="200" height="56" rx="8" fill="#FAECE7" stroke="#993C1D" stroke-width="0.5"/>
<text x="540" y="480" text-anchor="middle" font-size="13" font-weight="500" fill="#712B13">Status reporter</text>
<text x="540" y="498" text-anchor="middle" font-size="11" fill="#993C1D">Weekly status report</text>

<!-- Agent Row 2 -->
<rect x="20" y="560" width="180" height="56" rx="8" fill="#FAECE7" stroke="#993C1D" stroke-width="0.5"/>
<text x="110" y="580" text-anchor="middle" font-size="13" font-weight="500" fill="#712B13">Milestone tracker</text>
<text x="110" y="598" text-anchor="middle" font-size="11" fill="#993C1D">At-risk milestone alerts</text>

<rect x="230" y="560" width="180" height="56" rx="8" fill="#FAECE7" stroke="#993C1D" stroke-width="0.5"/>
<text x="320" y="580" text-anchor="middle" font-size="13" font-weight="500" fill="#712B13">Stakeholder update</text>
<text x="320" y="598" text-anchor="middle" font-size="11" fill="#993C1D">Email generation</text>

<rect x="440" y="560" width="200" height="56" rx="8" fill="#FAECE7" stroke="#993C1D" stroke-width="0.5"/>
<text x="540" y="580" text-anchor="middle" font-size="13" font-weight="500" fill="#712B13">Resource advisor</text>
<text x="540" y="598" text-anchor="middle" font-size="11" fill="#993C1D">Allocation analysis</text>

<!-- Arrows from agents to Langfuse -->
<path d="M110 616 L110 700 L240 700" fill="none" stroke="#888780" stroke-width="1" marker-end="url(#arrow)" opacity="0.6"/>
<path d="M320 616 L320 700" fill="none" stroke="#888780" stroke-width="1" marker-end="url(#arrow)" opacity="0.6"/>
<path d="M540 616 L540 700 L400 700" fill="none" stroke="#888780" stroke-width="1" marker-end="url(#arrow)" opacity="0.6"/>

<!-- Langfuse node -->
<rect x="140" y="686" width="360" height="56" rx="8" fill="#E6F1FB" stroke="#185FA5" stroke-width="0.5"/>
<text x="320" y="706" text-anchor="middle" font-size="14" font-weight="500" fill="#0C447C">Langfuse trace</text>
<text x="320" y="724" text-anchor="middle" font-size="11" fill="#185FA5">Observability — HTTP Request node</text>

<!-- Arrow to output -->
<line x1="320" y1="742" x2="320" y2="772" stroke="#888780" stroke-width="1" marker-end="url(#arrow)"/>

<!-- Output node -->
<rect x="180" y="772" width="280" height="56" rx="8" fill="#EAF3DE" stroke="#3B6D11" stroke-width="0.5"/>
<text x="320" y="792" text-anchor="middle" font-size="14" font-weight="500" fill="#27500A">Structured output</text>
<text x="320" y="810" text-anchor="middle" font-size="11" fill="#3B6D11">Plan / risk matrix / report / email</text>

<!-- Legend -->
<text x="20" y="848" font-size="11" font-weight="500" fill="#2C2C2A">Legend:</text>
<rect x="75" y="838" width="12" height="12" rx="2" fill="#EEEDFE" stroke="#534AB7" stroke-width="0.5"/>
<text x="92" y="849" font-size="10" fill="#5F5E5A">Trigger/Orchestrator</text>
<rect x="210" y="838" width="12" height="12" rx="2" fill="#E1F5EE" stroke="#0F6E56" stroke-width="0.5"/>
<text x="227" y="849" font-size="10" fill="#5F5E5A">Data layer</text>
<rect x="295" y="838" width="12" height="12" rx="2" fill="#FAEEDA" stroke="#854F0B" stroke-width="0.5"/>
<text x="312" y="849" font-size="10" fill="#5F5E5A">Processing</text>
<rect x="385" y="838" width="12" height="12" rx="2" fill="#FAECE7" stroke="#993C1D" stroke-width="0.5"/>
<text x="402" y="849" font-size="10" fill="#5F5E5A">Agents</text>
<rect x="450" y="838" width="12" height="12" rx="2" fill="#E6F1FB" stroke="#185FA5" stroke-width="0.5"/>
<text x="467" y="849" font-size="10" fill="#5F5E5A">Observability</text>
<rect x="555" y="838" width="12" height="12" rx="2" fill="#EAF3DE" stroke="#3B6D11" stroke-width="0.5"/>
<text x="572" y="849" font-size="10" fill="#5F5E5A">Output</text>

<!-- Title -->
<text x="340" y="878" text-anchor="middle" font-size="12" fill="#888780">Mira — AI-Powered Project Intelligence Assistant | Nexora Pvt. Ltd. | n8n Cloud + gpt-4o-mini + Langfuse</text>

</svg>
